<?xml version="1.0" standalone="no"?>
<!DOCTYPE svg PUBLIC "-//W3C//DTD SVG 20010904//EN"
 "http://www.w3.org/TR/2001/REC-SVG-20010904/DTD/svg10.dtd">
<svg version="1.0" xmlns="http://www.w3.org/2000/svg"
 width="271.000000pt" height="62.000000pt" viewBox="0 0 271.000000 62.000000"
 preserveAspectRatio="xMidYMid meet">

<g transform="translate(0.000000,62.000000) scale(0.100000,-0.100000)"
fill="#000000" stroke="none">
<path d="M247 509 c-4 -16 -11 -20 -27 -16 -12 3 -20 1 -19 -6 4 -24 -13 -46
-29 -39 -14 5 -15 3 -4 -10 14 -17 6 -48 -15 -61 -17 -11 -17 -31 1 -24 17 7
28 -47 13 -62 -15 -15 16 -55 57 -75 63 -30 142 -4 166 53 13 32 6 86 -10 76
-6 -3 -10 -1 -10 5 0 7 -6 10 -12 8 -7 -3 -13 -11 -13 -19 0 -22 -27 -38 -62
-39 -32 0 -51 14 -34 24 6 4 5 18 -2 36 -9 25 -9 36 4 58 14 25 20 27 66 24
43 -3 52 0 57 16 8 24 -2 52 -19 52 -7 0 -16 6 -19 13 -5 10 -7 10 -12 0 -7
-15 -54 -17 -54 -3 0 19 -18 10 -23 -11z"/>
<path d="M1850 511 c0 -5 8 -11 17 -13 15 -3 15 -4 -1 -20 -17 -17 -17 -19 0
-35 16 -17 16 -18 1 -21 -20 -4 -22 -18 -4 -25 9 -4 8 -8 -3 -17 -11 -9 -12
-13 -2 -17 6 -2 12 -11 12 -18 0 -7 -6 -16 -12 -18 -10 -4 -10 -6 0 -6 6 -1
12 -7 12 -15 0 -8 -6 -17 -12 -20 -10 -5 -10 -7 0 -12 6 -3 12 -12 12 -20 0
-9 -4 -12 -10 -9 -5 3 -10 -1 -10 -9 0 -9 12 -19 27 -22 20 -5 30 -2 43 14 20
24 43 175 38 242 l-3 45 -52 3 c-30 2 -53 -1 -53 -7z"/>
<path d="M1073 434 c-8 -4 -11 -15 -7 -30 5 -20 2 -26 -15 -31 -27 -7 -27 -19
2 -27 21 -7 21 -7 2 -16 -30 -13 -32 -12 -39 14 -5 20 -14 26 -53 32 -31 4
-53 3 -66 -6 -17 -10 -23 -10 -32 4 -7 9 -17 16 -22 16 -11 0 -46 -267 -37
-281 8 -13 52 -11 61 4 4 6 13 28 18 47 11 35 21 42 86 55 28 5 59 44 62 76 1
11 9 19 19 19 15 0 18 -9 18 -50 0 -49 9 -60 36 -42 20 13 56 95 56 128 0 68
-41 108 -89 88z m33 -41 c-10 -11 -19 -7 -22 10 -2 15 0 16 12 6 8 -6 12 -14
10 -16z m-154 -60 c22 -20 23 -56 2 -77 -19 -20 -28 -20 -44 -1 -15 17 -10 47
9 53 10 3 12 -1 8 -17 -6 -25 20 -30 29 -6 14 35 -46 61 -74 33 -7 -7 -12 -9
-12 -6 0 13 32 38 47 38 9 0 25 -7 35 -17z m-73 -103 c0 -9 -4 -8 -9 5 -5 11
-9 27 -9 35 0 9 4 8 9 -5 5 -11 9 -27 9 -35z"/>
<path d="M522 384 c-6 -7 -20 -10 -29 -7 -10 4 -14 2 -9 -5 3 -6 2 -13 -4 -17
-5 -3 -10 1 -10 9 0 9 -7 16 -15 16 -8 0 -15 -2 -15 -4 0 -2 -7 -41 -16 -87
-15 -78 -15 -84 2 -96 10 -7 21 -13 26 -13 18 0 48 42 48 68 0 39 11 50 50 54
33 3 35 6 38 41 3 34 1 37 -22 37 -13 0 -26 4 -28 9 -1 5 -9 3 -16 -5z m-68
-145 c-3 -5 -10 -7 -15 -3 -5 3 -7 10 -3 15 3 5 10 7 15 3 5 -3 7 -10 3 -15z"/>
<path d="M2320 386 c0 -11 -10 -13 -39 -9 -33 5 -44 1 -66 -21 -21 -21 -26
-34 -24 -71 2 -25 6 -50 9 -55 11 -18 63 -28 82 -16 24 14 30 4 18 -28 -14
-37 -36 -42 -70 -18 -33 25 -43 19 -27 -16 19 -46 38 -62 73 -62 43 0 87 38
102 88 16 52 16 194 0 210 -17 17 -58 15 -58 -2z m-22 -48 c25 -25 5 -98 -27
-98 -31 0 -42 68 -15 94 19 19 26 20 42 4z"/>
<path d="M2254 305 c-4 -9 -2 -21 4 -27 15 -15 44 -1 40 19 -4 23 -36 29 -44
8z"/>
<path d="M1224 368 c1 -17 -5 -24 -21 -26 -22 -3 -33 -22 -13 -22 6 0 10 -11
10 -25 0 -14 -4 -25 -10 -25 -5 0 -10 -4 -10 -10 0 -5 6 -10 14 -10 9 0 16
-12 18 -27 3 -25 8 -29 48 -34 83 -12 137 37 127 114 -7 54 -35 77 -92 77 -24
0 -50 2 -58 5 -9 4 -13 -1 -13 -17z m86 -71 c0 -36 -16 -67 -36 -67 -12 0 -14
9 -10 46 8 78 45 95 46 21z"/>
<path d="M1415 380 c-4 -6 -3 -46 1 -91 7 -79 7 -80 32 -77 21 2 30 12 44 53
22 60 22 55 1 55 -16 1 -16 2 1 11 27 16 37 -5 34 -71 -3 -52 -2 -55 23 -58
42 -5 62 27 54 88 -10 70 -59 100 -116 70 -16 -9 -19 -7 -19 10 0 15 -7 20
-24 20 -14 0 -28 -5 -31 -10z m150 -130 c3 -5 1 -10 -4 -10 -6 0 -11 5 -11 10
0 6 2 10 4 10 3 0 8 -4 11 -10z"/>
<path d="M1664 371 c1 -9 -9 -20 -21 -26 -24 -10 -31 -25 -13 -25 6 0 10 -11
10 -25 0 -14 -4 -25 -10 -25 -5 0 -10 -4 -10 -10 0 -5 7 -10 16 -10 10 0 14
-6 11 -14 -16 -42 79 -68 131 -35 40 24 54 51 50 101 -4 53 -34 75 -109 80
-46 4 -56 2 -55 -11z m86 -74 c0 -36 -16 -67 -36 -67 -12 0 -14 9 -10 46 8 78
45 95 46 21z"/>
<path d="M2007 369 c4 -13 -2 -20 -21 -25 -25 -6 -37 -24 -16 -24 6 0 10 -11
10 -25 0 -14 -4 -25 -10 -25 -5 0 -10 -4 -10 -10 0 -5 7 -10 16 -10 10 0 14
-6 11 -14 -9 -23 16 -43 60 -49 79 -9 133 49 119 127 -9 46 -35 63 -107 68
-50 4 -56 2 -52 -13z m83 -72 c0 -35 -16 -67 -34 -67 -20 0 -18 73 2 98 20 24
32 12 32 -31z"/>
<path d="M618 363 c-21 -5 -24 -19 -5 -26 9 -3 9 -7 -2 -20 -12 -15 -11 -17 3
-17 9 0 16 -7 16 -15 0 -8 -4 -15 -10 -15 -16 0 -12 -18 10 -40 32 -32 76 -23
93 20 11 28 7 -26 -4 -59 -13 -36 -46 -49 -79 -31 -27 14 -37 6 -20 -15 11
-13 10 -14 -4 -9 -22 9 -20 -12 4 -36 27 -27 98 -27 133 0 28 22 51 76 36 85
-12 8 -12 108 1 121 12 12 -3 64 -19 64 -28 0 -41 -14 -41 -45 0 -42 -22 -62
-53 -47 -12 6 -16 11 -9 11 15 1 16 35 2 62 -11 19 -19 21 -52 12z"/>
<path d="M2418 363 c-21 -5 -24 -19 -5 -26 9 -3 9 -7 -2 -20 -12 -15 -11 -17
3 -17 9 0 16 -7 16 -15 0 -8 -4 -15 -10 -15 -17 0 -11 -18 12 -40 34 -32 72
-24 91 20 4 8 5 -3 2 -24 -2 -22 -13 -49 -25 -60 -17 -17 -24 -19 -49 -9 -34
12 -46 6 -29 -14 8 -11 7 -12 -6 -7 -22 9 -20 -12 4 -36 14 -14 33 -20 63 -20
84 0 121 53 121 177 1 91 -13 121 -53 108 -16 -5 -21 -15 -21 -39 0 -43 -22
-63 -53 -48 -12 6 -16 11 -9 11 15 1 16 35 2 62 -11 19 -19 21 -52 12z"/>
</g>
</svg>
